<?xml version="1.0" encoding="UTF-8" standalone="no"?>
<svg
   viewBox="0 0 26.940788 25.473188"
   x="0px"
   y="0px"
   version="1.1"
   id="svg103"
   width="64"
   height="64"
   xmlns="http://www.w3.org/2000/svg"
   xmlns:svg="http://www.w3.org/2000/svg"
   xmlns:rdf="http://www.w3.org/1999/02/22-rdf-syntax-ns#"
   xmlns:cc="http://creativecommons.org/ns#"
   xmlns:dc="http://purl.org/dc/elements/1.1/">
  <defs
     id="defs107" />
  <g
     id="g97"
     transform="translate(-2.5669165,-3.2608202)"
     style="fill:#999999">
    <path
       d="M 16.047,28.734 A 0.5,0.5 0 0 1 15.636,28.519 L 2.682,9.807 A 0.5,0.5 0 1 1 3.5,9.238 L 16.458,27.95 a 0.5,0.5 0 0 1 -0.411,0.784 z"
       id="path77"
       style="fill:#999999" />
    <path
       d="M 16.046,28.734 A 0.5,0.5 0 0 1 15.636,27.95 L 28.59,9.238 a 0.5,0.5 0 1 1 0.822,0.569 L 16.458,28.519 a 0.5,0.5 0 0 1 -0.412,0.215 z"
       id="path79"
       style="fill:#999999" />
    <path
       d="m 3.092,10.022 a 0.5,0.5 0 0 1 -0.4,-0.8 l 4.38,-5.76 a 0.50150399,0.50150399 0 1 1 0.8,0.605 L 3.491,9.825 a 0.5,0.5 0 0 1 -0.399,0.197 z"
       id="path81"
       style="fill:#999999" />
    <path
       d="m 29,10.022 a 0.5,0.5 0 0 1 -0.4,-0.2 L 24.283,4.064 a 0.5,0.5 0 1 1 0.8,-0.6 L 29.4,9.223 a 0.5,0.5 0 0 1 -0.4,0.8 z"
       id="path83"
       style="fill:#999999" />
    <path
       d="M 24.683,4.265 H 7.47 a 0.5,0.5 0 0 1 0,-1 h 17.213 a 0.5,0.5 0 1 1 0,1 z"
       id="path85"
       style="fill:#999999" />
    <path
       d="M 29,10.022 H 3.093 a 0.5,0.5 0 0 1 0,-1 H 29 a 0.5,0.5 0 0 1 0,1 z"
       id="path87"
       style="fill:#999999" />
    <path
       d="m 16.046,28.734 a 0.5,0.5 0 0 1 -0.482,-0.37 L 10.526,9.652 A 0.50005925,0.50005925 0 0 1 11.492,9.393 L 16.53,28.1 a 0.5,0.5 0 0 1 -0.484,0.63 z"
       id="path89"
       style="fill:#999999" />
    <path
       d="m 16.047,28.734 a 0.491,0.491 0 0 1 -0.131,-0.017 0.5,0.5 0 0 1 -0.352,-0.614 l 5.1,-18.712 a 0.5,0.5 0 1 1 0.964,0.263 l -5.1,18.712 a 0.5,0.5 0 0 1 -0.481,0.368 z"
       id="path91"
       style="fill:#999999" />
    <path
       d="M 11.008,10.022 A 0.507,0.507 0 0 1 10.789,9.972 0.5,0.5 0 0 1 10.56,9.3 l 2.819,-5.758 a 0.50067979,0.50067979 0 1 1 0.9,0.439 l -2.821,5.761 a 0.5,0.5 0 0 1 -0.45,0.28 z"
       id="path93"
       style="fill:#999999" />
    <path
       d="m 21.145,10.022 a 0.5,0.5 0 0 1 -0.45,-0.28 L 17.876,3.984 a 0.50067979,0.50067979 0 0 1 0.9,-0.439 L 21.593,9.3 a 0.5,0.5 0 0 1 -0.229,0.669 0.507,0.507 0 0 1 -0.219,0.053 z"
       id="path95"
       style="fill:#999999" />
  </g>
</svg>
